<?xml version="1.0" encoding="UTF-8" standalone="no"?>
<!DOCTYPE svg PUBLIC "-//W3C//DTD SVG 1.1//EN"
 "http://www.w3.org/Graphics/SVG/1.1/DTD/svg11.dtd">
<!-- Generated by graphviz version 2.38.0 (20140413.2041)
 -->
<!-- Title: xxx Pages: 1 -->
<svg width="1499pt" height="716pt"
 viewBox="0.00 0.00 1499.00 716.00" xmlns="http://www.w3.org/2000/svg" xmlns:xlink="http://www.w3.org/1999/xlink">
<g id="graph0" class="graph" transform="scale(1 1) rotate(0) translate(4 712)">
<title>xxx</title>
<polygon fill="white" stroke="none" points="-4,4 -4,-712 1495,-712 1495,4 -4,4"/>
<text text-anchor="middle" x="745.5" y="-6.8" font-family="Times,serif" font-size="14.00"> &#160;</text>
<!-- a -->
<g id="node1" class="node"><title>a</title>
<ellipse fill="gray" stroke="black" cx="309" cy="-141" rx="31" ry="31"/>
<text text-anchor="middle" x="309" y="-136.8" font-family="Times,serif" font-size="14.00">a</text>
</g>
<!-- of_a -->
<g id="node39" class="node"><title>of_a</title>
<polygon fill="black" stroke="black" points="317,-38 301,-38 301,-22 317,-22 317,-38"/>
</g>
<!-- a&#45;&gt;of_a -->
<g id="edge1" class="edge"><title>a&#45;&gt;of_a</title>
<path fill="none" stroke="black" d="M309,-109.927C309,-85.4772 309,-52.7579 309,-38.3437"/>
</g>
<!-- b -->
<g id="node2" class="node"><title>b</title>
<ellipse fill="gray" stroke="black" cx="175" cy="-141" rx="31" ry="31"/>
<text text-anchor="middle" x="175" y="-136.8" font-family="Times,serif" font-size="14.00">b</text>
</g>
<!-- of_b -->
<g id="node40" class="node"><title>of_b</title>
<polygon fill="black" stroke="black" points="183,-38 167,-38 167,-22 183,-22 183,-38"/>
</g>
<!-- b&#45;&gt;of_b -->
<g id="edge2" class="edge"><title>b&#45;&gt;of_b</title>
<path fill="none" stroke="black" d="M175,-109.927C175,-85.4772 175,-52.7579 175,-38.3437"/>
</g>
<!-- c -->
<g id="node3" class="node"><title>c</title>
<ellipse fill="none" stroke="black" cx="36" cy="-141" rx="31" ry="31"/>
<text text-anchor="middle" x="36" y="-136.8" font-family="Times,serif" font-size="14.00">c</text>
</g>
<!-- d -->
<g id="node4" class="node"><title>d</title>
<ellipse fill="none" stroke="black" cx="472" cy="-141" rx="31" ry="31"/>
<text text-anchor="middle" x="472" y="-136.8" font-family="Times,serif" font-size="14.00">d</text>
</g>
<!-- e -->
<g id="node5" class="node"><title>e</title>
<ellipse fill="none" stroke="black" cx="619" cy="-141" rx="31" ry="31"/>
<text text-anchor="middle" x="619" y="-136.8" font-family="Times,serif" font-size="14.00">e</text>
</g>
<!-- f -->
<g id="node6" class="node"><title>f</title>
<ellipse fill="gray" stroke="black" cx="1071" cy="-141" rx="31" ry="31"/>
<text text-anchor="middle" x="1071" y="-136.8" font-family="Times,serif" font-size="14.00">f</text>
</g>
<!-- of_f -->
<g id="node41" class="node"><title>of_f</title>
<polygon fill="black" stroke="black" points="1079,-38 1063,-38 1063,-22 1079,-22 1079,-38"/>
</g>
<!-- f&#45;&gt;of_f -->
<g id="edge3" class="edge"><title>f&#45;&gt;of_f</title>
<path fill="none" stroke="black" d="M1071,-109.927C1071,-85.4772 1071,-52.7579 1071,-38.3437"/>
</g>
<!-- g -->
<g id="node7" class="node"><title>g</title>
<ellipse fill="none" stroke="black" cx="895" cy="-141" rx="31" ry="31"/>
<text text-anchor="middle" x="895" y="-136.8" font-family="Times,serif" font-size="14.00">g</text>
</g>
<!-- h -->
<g id="node8" class="node"><title>h</title>
<ellipse fill="none" stroke="black" cx="1395" cy="-363" rx="31" ry="31"/>
<text text-anchor="middle" x="1395" y="-358.8" font-family="Times,serif" font-size="14.00">h</text>
</g>
<!-- A -->
<g id="node9" class="node"><title>A</title>
<polygon fill="none" stroke="black" points="187.5,-389.5 134.5,-389.5 134.5,-336.5 187.5,-336.5 187.5,-389.5"/>
<text text-anchor="middle" x="161" y="-358.8" font-family="Times,serif" font-size="14.00">A</text>
</g>
<!-- AxZ -->
<g id="node27" class="node"><title>AxZ</title>
<ellipse fill="black" stroke="black" cx="184" cy="-252" rx="8" ry="8"/>
</g>
<!-- A&#45;&gt;AxZ -->
<g id="edge35" class="edge"><title>A&#45;&gt;AxZ</title>
<path fill="none" stroke="black" d="M166.392,-336.444C171.65,-311.526 179.308,-275.237 182.508,-260.072"/>
</g>
<!-- AxY -->
<g id="node28" class="node"><title>AxY</title>
<ellipse fill="black" stroke="black" cx="36" cy="-252" rx="8" ry="8"/>
</g>
<!-- A&#45;&gt;AxY -->
<g id="edge36" class="edge"><title>A&#45;&gt;AxY</title>
<path fill="none" stroke="black" d="M134.491,-338.884C104.678,-312.887 58.2917,-272.438 41.9449,-258.184"/>
</g>
<!-- B -->
<g id="node10" class="node"><title>B</title>
<polygon fill="none" stroke="black" points="507.5,-389.5 454.5,-389.5 454.5,-336.5 507.5,-336.5 507.5,-389.5"/>
<text text-anchor="middle" x="481" y="-358.8" font-family="Times,serif" font-size="14.00">B</text>
</g>
<!-- BxZ -->
<g id="node29" class="node"><title>BxZ</title>
<ellipse fill="black" stroke="black" cx="472" cy="-252" rx="8" ry="8"/>
</g>
<!-- B&#45;&gt;BxZ -->
<g id="edge37" class="edge"><title>B&#45;&gt;BxZ</title>
<path fill="none" stroke="black" d="M478.89,-336.444C476.832,-311.526 473.836,-275.237 472.584,-260.072"/>
</g>
<!-- BxX -->
<g id="node30" class="node"><title>BxX</title>
<ellipse fill="black" stroke="black" cx="619" cy="-252" rx="8" ry="8"/>
</g>
<!-- B&#45;&gt;BxX -->
<g id="edge38" class="edge"><title>B&#45;&gt;BxX</title>
<path fill="none" stroke="black" d="M507.608,-340.984C540.817,-314.754 595.415,-271.629 613.202,-257.579"/>
</g>
<!-- C -->
<g id="node11" class="node"><title>C</title>
<polygon fill="gray" stroke="black" points="1185.5,-389.5 1132.5,-389.5 1132.5,-336.5 1185.5,-336.5 1185.5,-389.5"/>
<text text-anchor="middle" x="1159" y="-358.8" font-family="Times,serif" font-size="14.00">C</text>
</g>
<!-- CxU -->
<g id="node31" class="node"><title>CxU</title>
<ellipse fill="black" stroke="black" cx="1071" cy="-252" rx="8" ry="8"/>
</g>
<!-- C&#45;&gt;CxU -->
<g id="edge39" class="edge"><title>C&#45;&gt;CxU</title>
<path fill="none" stroke="black" d="M1138.37,-336.444C1117.64,-310.771 1087.17,-273.027 1075.64,-258.752"/>
</g>
<!-- of_C -->
<g id="node42" class="node"><title>of_C</title>
<polygon fill="black" stroke="black" points="1167,-260 1151,-260 1151,-244 1167,-244 1167,-260"/>
</g>
<!-- C&#45;&gt;of_C -->
<g id="edge4" class="edge"><title>C&#45;&gt;of_C</title>
<path fill="none" stroke="black" d="M1159,-336.444C1159,-311.526 1159,-275.237 1159,-260.072"/>
</g>
<!-- U -->
<g id="node12" class="node"><title>U</title>
<ellipse fill="gray" stroke="black" cx="807" cy="-363" rx="31" ry="31"/>
<text text-anchor="middle" x="807" y="-358.8" font-family="Times,serif" font-size="14.00">U</text>
</g>
<!-- U&#45;&gt;CxU -->
<g id="edge51" class="edge"><title>U&#45;&gt;CxU</title>
<path fill="none" stroke="black" d="M835.503,-350.232C895.235,-325.57 1030.74,-269.623 1063.68,-256.022"/>
</g>
<!-- DxU -->
<g id="node32" class="node"><title>DxU</title>
<ellipse fill="black" stroke="black" cx="895" cy="-252" rx="8" ry="8"/>
</g>
<!-- U&#45;&gt;DxU -->
<g id="edge52" class="edge"><title>U&#45;&gt;DxU</title>
<path fill="none" stroke="black" d="M826.095,-338.349C846.719,-312.803 878.229,-273.773 890.179,-258.972"/>
</g>
<!-- of_U -->
<g id="node45" class="node"><title>of_U</title>
<polygon fill="black" stroke="black" points="815,-260 799,-260 799,-244 815,-244 815,-260"/>
</g>
<!-- U&#45;&gt;of_U -->
<g id="edge7" class="edge"><title>U&#45;&gt;of_U</title>
<path fill="none" stroke="black" d="M807,-331.927C807,-307.477 807,-274.758 807,-260.344"/>
</g>
<!-- X -->
<g id="node13" class="node"><title>X</title>
<ellipse fill="none" stroke="black" cx="633" cy="-363" rx="31" ry="31"/>
<text text-anchor="middle" x="633" y="-358.8" font-family="Times,serif" font-size="14.00">X</text>
</g>
<!-- X&#45;&gt;BxX -->
<g id="edge50" class="edge"><title>X&#45;&gt;BxX</title>
<path fill="none" stroke="black" d="M629.174,-332.215C626.033,-307.758 621.81,-274.877 619.949,-260.385"/>
</g>
<!-- D -->
<g id="node14" class="node"><title>D</title>
<polygon fill="gray" stroke="black" points="1009.5,-389.5 956.5,-389.5 956.5,-336.5 1009.5,-336.5 1009.5,-389.5"/>
<text text-anchor="middle" x="983" y="-358.8" font-family="Times,serif" font-size="14.00">D</text>
</g>
<!-- D&#45;&gt;DxU -->
<g id="edge40" class="edge"><title>D&#45;&gt;DxU</title>
<path fill="none" stroke="black" d="M962.368,-336.444C941.641,-310.771 911.168,-273.027 899.644,-258.752"/>
</g>
<!-- of_D -->
<g id="node43" class="node"><title>of_D</title>
<polygon fill="black" stroke="black" points="991,-260 975,-260 975,-244 991,-244 991,-260"/>
</g>
<!-- D&#45;&gt;of_D -->
<g id="edge5" class="edge"><title>D&#45;&gt;of_D</title>
<path fill="none" stroke="black" d="M983,-336.444C983,-311.526 983,-275.237 983,-260.072"/>
</g>
<!-- E -->
<g id="node15" class="node"><title>E</title>
<polygon fill="none" stroke="black" points="1356.5,-613.5 1303.5,-613.5 1303.5,-560.5 1356.5,-560.5 1356.5,-613.5"/>
<text text-anchor="middle" x="1330" y="-582.8" font-family="Times,serif" font-size="14.00">E</text>
</g>
<!-- ExV -->
<g id="node33" class="node"><title>ExV</title>
<ellipse fill="black" stroke="black" cx="1395" cy="-475" rx="8" ry="8"/>
</g>
<!-- E&#45;&gt;ExV -->
<g id="edge41" class="edge"><title>E&#45;&gt;ExV</title>
<path fill="none" stroke="black" d="M1345.08,-560.487C1360.23,-534.847 1382.55,-497.067 1391.3,-482.269"/>
</g>
<!-- 1 -->
<g id="node16" class="node"><title>1</title>
<polygon fill="none" stroke="black" points="208.5,-613.5 155.5,-613.5 155.5,-560.5 208.5,-560.5 208.5,-613.5"/>
<text text-anchor="middle" x="182" y="-582.8" font-family="Times,serif" font-size="14.00">1</text>
</g>
<!-- 1x10 -->
<g id="node34" class="node"><title>1x10</title>
<ellipse fill="black" stroke="black" cx="182" cy="-475" rx="8" ry="8"/>
</g>
<!-- 1&#45;&gt;1x10 -->
<g id="edge42" class="edge"><title>1&#45;&gt;1x10</title>
<path fill="none" stroke="black" d="M182,-560.487C182,-535.354 182,-498.558 182,-483.175"/>
</g>
<!-- 2 -->
<g id="node17" class="node"><title>2</title>
<polygon fill="none" stroke="black" points="536.5,-613.5 483.5,-613.5 483.5,-560.5 536.5,-560.5 536.5,-613.5"/>
<text text-anchor="middle" x="510" y="-582.8" font-family="Times,serif" font-size="14.00">2</text>
</g>
<!-- 2x10 -->
<g id="node35" class="node"><title>2x10</title>
<ellipse fill="black" stroke="black" cx="481" cy="-475" rx="8" ry="8"/>
</g>
<!-- 2&#45;&gt;2x10 -->
<g id="edge43" class="edge"><title>2&#45;&gt;2x10</title>
<path fill="none" stroke="black" d="M503.274,-560.487C496.648,-535.354 486.947,-498.558 482.892,-483.175"/>
</g>
<!-- 3 -->
<g id="node18" class="node"><title>3</title>
<polygon fill="none" stroke="black" stroke-dasharray="5,2" points="1096.5,-613.5 1043.5,-613.5 1043.5,-560.5 1096.5,-560.5 1096.5,-613.5"/>
<text text-anchor="middle" x="1070" y="-582.8" font-family="Times,serif" font-size="14.00">3</text>
</g>
<!-- 3x11 -->
<g id="node36" class="node"><title>3x11</title>
<ellipse fill="black" stroke="black" cx="1159" cy="-475" rx="8" ry="8"/>
</g>
<!-- 3&#45;&gt;3x11 -->
<g id="edge44" class="edge"><title>3&#45;&gt;3x11</title>
<path fill="none" stroke="black" stroke-dasharray="5,2" d="M1090.64,-560.487C1111.59,-534.593 1142.56,-496.317 1154.28,-481.836"/>
</g>
<!-- 4 -->
<g id="node19" class="node"><title>4</title>
<polygon fill="none" stroke="black" points="921.5,-613.5 868.5,-613.5 868.5,-560.5 921.5,-560.5 921.5,-613.5"/>
<text text-anchor="middle" x="895" y="-582.8" font-family="Times,serif" font-size="14.00">4</text>
</g>
<!-- 4x12 -->
<g id="node37" class="node"><title>4x12</title>
<ellipse fill="black" stroke="black" cx="807" cy="-475" rx="8" ry="8"/>
</g>
<!-- 4&#45;&gt;4x12 -->
<g id="edge45" class="edge"><title>4&#45;&gt;4x12</title>
<path fill="none" stroke="black" d="M874.59,-560.487C853.874,-534.593 823.254,-496.317 811.669,-481.836"/>
</g>
<!-- 5 -->
<g id="node20" class="node"><title>5</title>
<polygon fill="none" stroke="black" points="661.5,-613.5 608.5,-613.5 608.5,-560.5 661.5,-560.5 661.5,-613.5"/>
<text text-anchor="middle" x="635" y="-582.8" font-family="Times,serif" font-size="14.00">5</text>
</g>
<!-- 5x12 -->
<g id="node38" class="node"><title>5x12</title>
<ellipse fill="black" stroke="black" cx="635" cy="-475" rx="8" ry="8"/>
</g>
<!-- 5&#45;&gt;5x12 -->
<g id="edge46" class="edge"><title>5&#45;&gt;5x12</title>
<path fill="none" stroke="black" d="M635,-560.487C635,-535.354 635,-498.558 635,-483.175"/>
</g>
<!-- Z -->
<g id="node21" class="node"><title>Z</title>
<ellipse fill="gray" stroke="black" cx="291" cy="-363" rx="31" ry="31"/>
<text text-anchor="middle" x="291" y="-358.8" font-family="Times,serif" font-size="14.00">Z</text>
</g>
<!-- Z&#45;&gt;AxZ -->
<g id="edge47" class="edge"><title>Z&#45;&gt;AxZ</title>
<path fill="none" stroke="black" d="M269.604,-340.204C244.234,-314.359 203.578,-272.944 189.224,-258.322"/>
</g>
<!-- Z&#45;&gt;BxZ -->
<g id="edge49" class="edge"><title>Z&#45;&gt;BxZ</title>
<path fill="none" stroke="black" d="M317.319,-346.15C360.067,-320.407 442.178,-270.959 465.613,-256.846"/>
</g>
<!-- of_Z -->
<g id="node44" class="node"><title>of_Z</title>
<polygon fill="black" stroke="black" points="299,-260 283,-260 283,-244 299,-244 299,-260"/>
</g>
<!-- Z&#45;&gt;of_Z -->
<g id="edge6" class="edge"><title>Z&#45;&gt;of_Z</title>
<path fill="none" stroke="black" d="M291,-331.927C291,-307.477 291,-274.758 291,-260.344"/>
</g>
<!-- Y -->
<g id="node22" class="node"><title>Y</title>
<ellipse fill="none" stroke="black" cx="31" cy="-363" rx="31" ry="31"/>
<text text-anchor="middle" x="31" y="-358.8" font-family="Times,serif" font-size="14.00">Y</text>
</g>
<!-- Y&#45;&gt;AxY -->
<g id="edge48" class="edge"><title>Y&#45;&gt;AxY</title>
<path fill="none" stroke="black" d="M32.3795,-331.927C33.501,-307.477 35.0019,-274.758 35.6631,-260.344"/>
</g>
<!-- V -->
<g id="node23" class="node"><title>V</title>
<ellipse fill="none" stroke="black" cx="1460" cy="-587" rx="31" ry="31"/>
<text text-anchor="middle" x="1460" y="-582.8" font-family="Times,serif" font-size="14.00">V</text>
</g>
<!-- V&#45;&gt;ExV -->
<g id="edge53" class="edge"><title>V&#45;&gt;ExV</title>
<path fill="none" stroke="black" d="M1444.6,-559.932C1429.43,-534.265 1407.32,-496.846 1398.66,-482.202"/>
</g>
<!-- 10 -->
<g id="node24" class="node"><title>10</title>
<ellipse fill="gray" stroke="black" cx="380" cy="-587" rx="31" ry="31"/>
<text text-anchor="middle" x="380" y="-582.8" font-family="Times,serif" font-size="14.00">10</text>
</g>
<!-- 10&#45;&gt;1x10 -->
<g id="edge54" class="edge"><title>10&#45;&gt;1x10</title>
<path fill="none" stroke="black" d="M353.297,-571.165C307.063,-545.479 214.573,-494.096 188.803,-479.779"/>
</g>
<!-- 10&#45;&gt;2x10 -->
<g id="edge55" class="edge"><title>10&#45;&gt;2x10</title>
<path fill="none" stroke="black" d="M400.683,-563.474C424.46,-537.578 461.978,-496.717 475.726,-481.744"/>
</g>
<!-- of_10 -->
<g id="node46" class="node"><title>of_10</title>
<polygon fill="black" stroke="black" points="388,-483 372,-483 372,-467 388,-467 388,-483"/>
</g>
<!-- 10&#45;&gt;of_10 -->
<g id="edge8" class="edge"><title>10&#45;&gt;of_10</title>
<path fill="none" stroke="black" d="M380,-555.942C380,-531.006 380,-497.393 380,-483.006"/>
</g>
<!-- 11 -->
<g id="node25" class="node"><title>11</title>
<ellipse fill="none" stroke="black" stroke-dasharray="5,2" cx="1200" cy="-587" rx="31" ry="31"/>
<text text-anchor="middle" x="1200" y="-582.8" font-family="Times,serif" font-size="14.00">11</text>
</g>
<!-- 11&#45;&gt;3x11 -->
<g id="edge56" class="edge"><title>11&#45;&gt;3x11</title>
<path fill="none" stroke="black" stroke-dasharray="5,2" d="M1189.44,-557.672C1180.05,-532.464 1166.97,-497.393 1161.53,-482.795"/>
</g>
<!-- 12 -->
<g id="node26" class="node"><title>12</title>
<ellipse fill="none" stroke="black" cx="765" cy="-587" rx="31" ry="31"/>
<text text-anchor="middle" x="765" y="-582.8" font-family="Times,serif" font-size="14.00">12</text>
</g>
<!-- 12&#45;&gt;4x12 -->
<g id="edge57" class="edge"><title>12&#45;&gt;4x12</title>
<path fill="none" stroke="black" d="M775.816,-557.672C785.441,-532.464 798.832,-497.393 804.405,-482.795"/>
</g>
<!-- 12&#45;&gt;5x12 -->
<g id="edge58" class="edge"><title>12&#45;&gt;5x12</title>
<path fill="none" stroke="black" d="M741.759,-566.334C710.793,-540.132 657.9,-495.377 640.633,-480.766"/>
</g>
<!-- AxZ&#45;&gt;a -->
<g id="edge22" class="edge"><title>AxZ&#45;&gt;a</title>
<path fill="none" stroke="black" d="M189.696,-246.033C206.46,-231.415 256.309,-187.947 286.001,-162.055"/>
</g>
<!-- AxZ&#45;&gt;b -->
<g id="edge23" class="edge"><title>AxZ&#45;&gt;b</title>
<path fill="none" stroke="black" d="M183.409,-243.848C182.228,-229.545 179.515,-196.68 177.488,-172.127"/>
</g>
<!-- AxY&#45;&gt;c -->
<g id="edge24" class="edge"><title>AxY&#45;&gt;c</title>
<path fill="none" stroke="black" d="M36,-243.848C36,-229.545 36,-196.68 36,-172.127"/>
</g>
<!-- BxZ&#45;&gt;d -->
<g id="edge25" class="edge"><title>BxZ&#45;&gt;d</title>
<path fill="none" stroke="black" d="M472,-243.848C472,-229.545 472,-196.68 472,-172.127"/>
</g>
<!-- BxX&#45;&gt;e -->
<g id="edge26" class="edge"><title>BxX&#45;&gt;e</title>
<path fill="none" stroke="black" d="M619,-243.848C619,-229.545 619,-196.68 619,-172.127"/>
</g>
<!-- CxU&#45;&gt;f -->
<g id="edge27" class="edge"><title>CxU&#45;&gt;f</title>
<path fill="none" stroke="black" d="M1071,-243.848C1071,-229.545 1071,-196.68 1071,-172.127"/>
</g>
<!-- DxU&#45;&gt;g -->
<g id="edge28" class="edge"><title>DxU&#45;&gt;g</title>
<path fill="none" stroke="black" d="M895,-243.848C895,-229.545 895,-196.68 895,-172.127"/>
</g>
<!-- ExV&#45;&gt;h -->
<g id="edge29" class="edge"><title>ExV&#45;&gt;h</title>
<path fill="none" stroke="black" d="M1395,-466.783C1395,-452.348 1395,-419.182 1395,-394.404"/>
</g>
<!-- 1x10&#45;&gt;A -->
<g id="edge30" class="edge"><title>1x10&#45;&gt;A</title>
<path fill="none" stroke="black" d="M180.622,-466.783C177.684,-451.392 170.68,-414.707 165.887,-389.599"/>
</g>
<!-- 2x10&#45;&gt;B -->
<g id="edge31" class="edge"><title>2x10&#45;&gt;B</title>
<path fill="none" stroke="black" d="M481,-466.783C481,-451.392 481,-414.707 481,-389.599"/>
</g>
<!-- 3x11&#45;&gt;C -->
<g id="edge32" class="edge"><title>3x11&#45;&gt;C</title>
<path fill="none" stroke="black" d="M1159,-466.783C1159,-451.392 1159,-414.707 1159,-389.599"/>
</g>
<!-- 4x12&#45;&gt;U -->
<g id="edge33" class="edge"><title>4x12&#45;&gt;U</title>
<path fill="none" stroke="black" d="M807,-466.783C807,-452.348 807,-419.182 807,-394.404"/>
</g>
<!-- 5x12&#45;&gt;X -->
<g id="edge34" class="edge"><title>5x12&#45;&gt;X</title>
<path fill="none" stroke="black" d="M634.869,-466.783C634.606,-452.348 634.003,-419.182 633.553,-394.404"/>
</g>
<!-- pf_Z -->
<g id="node47" class="node"><title>pf_Z</title>
<polygon fill="black" stroke="black" points="291,-484 282,-475 291,-466 300,-475 291,-484"/>
</g>
<!-- pf_Z&#45;&gt;Z -->
<g id="edge9" class="edge"><title>pf_Z&#45;&gt;Z</title>
<path fill="none" stroke="black" d="M291,-465.732C291,-450.743 291,-418.392 291,-394.172"/>
</g>
<!-- pf_Y -->
<g id="node48" class="node"><title>pf_Y</title>
<polygon fill="black" stroke="black" points="31,-484 22,-475 31,-466 40,-475 31,-484"/>
</g>
<!-- pf_Y&#45;&gt;Y -->
<g id="edge10" class="edge"><title>pf_Y&#45;&gt;Y</title>
<path fill="none" stroke="black" d="M31,-465.732C31,-450.743 31,-418.392 31,-394.172"/>
</g>
<!-- pf_V -->
<g id="node49" class="node"><title>pf_V</title>
<polygon fill="black" stroke="black" points="1460,-708 1451,-699 1460,-690 1469,-699 1460,-708"/>
</g>
<!-- pf_V&#45;&gt;V -->
<g id="edge11" class="edge"><title>pf_V&#45;&gt;V</title>
<path fill="none" stroke="black" d="M1460,-689.732C1460,-674.743 1460,-642.392 1460,-618.172"/>
</g>
<!-- pf_10 -->
<g id="node50" class="node"><title>pf_10</title>
<polygon fill="black" stroke="black" points="380,-708 371,-699 380,-690 389,-699 380,-708"/>
</g>
<!-- pf_10&#45;&gt;10 -->
<g id="edge12" class="edge"><title>pf_10&#45;&gt;10</title>
<path fill="none" stroke="black" d="M380,-689.732C380,-674.743 380,-642.392 380,-618.172"/>
</g>
<!-- pf_11 -->
<g id="node51" class="node"><title>pf_11</title>
<polygon fill="black" stroke="black" points="1200,-708 1191,-699 1200,-690 1209,-699 1200,-708"/>
</g>
<!-- pf_11&#45;&gt;11 -->
<g id="edge13" class="edge"><title>pf_11&#45;&gt;11</title>
<path fill="none" stroke="black" stroke-dasharray="5,2" d="M1200,-689.732C1200,-674.743 1200,-642.392 1200,-618.172"/>
</g>
<!-- pf_12 -->
<g id="node52" class="node"><title>pf_12</title>
<polygon fill="black" stroke="black" points="765,-708 756,-699 765,-690 774,-699 765,-708"/>
</g>
<!-- pf_12&#45;&gt;12 -->
<g id="edge14" class="edge"><title>pf_12&#45;&gt;12</title>
<path fill="none" stroke="black" d="M765,-689.732C765,-674.743 765,-642.392 765,-618.172"/>
</g>
<!-- pf_D -->
<g id="node53" class="node"><title>pf_D</title>
<polygon fill="black" stroke="black" points="983,-484 974,-475 983,-466 992,-475 983,-484"/>
</g>
<!-- pf_D&#45;&gt;D -->
<g id="edge15" class="edge"><title>pf_D&#45;&gt;D</title>
<path fill="none" stroke="black" d="M983,-465.732C983,-449.843 983,-414.448 983,-389.905"/>
</g>
<!-- pf_E -->
<g id="node54" class="node"><title>pf_E</title>
<polygon fill="black" stroke="black" points="1330,-708 1321,-699 1330,-690 1339,-699 1330,-708"/>
</g>
<!-- pf_E&#45;&gt;E -->
<g id="edge16" class="edge"><title>pf_E&#45;&gt;E</title>
<path fill="none" stroke="black" d="M1330,-689.732C1330,-673.843 1330,-638.448 1330,-613.905"/>
</g>
<!-- pf_1 -->
<g id="node55" class="node"><title>pf_1</title>
<polygon fill="black" stroke="black" points="182,-708 173,-699 182,-690 191,-699 182,-708"/>
</g>
<!-- pf_1&#45;&gt;1 -->
<g id="edge17" class="edge"><title>pf_1&#45;&gt;1</title>
<path fill="none" stroke="black" d="M182,-689.732C182,-673.843 182,-638.448 182,-613.905"/>
</g>
<!-- pf_2 -->
<g id="node56" class="node"><title>pf_2</title>
<polygon fill="black" stroke="black" points="510,-708 501,-699 510,-690 519,-699 510,-708"/>
</g>
<!-- pf_2&#45;&gt;2 -->
<g id="edge18" class="edge"><title>pf_2&#45;&gt;2</title>
<path fill="none" stroke="black" d="M510,-689.732C510,-673.843 510,-638.448 510,-613.905"/>
</g>
<!-- pf_3 -->
<g id="node57" class="node"><title>pf_3</title>
<polygon fill="black" stroke="black" points="1070,-708 1061,-699 1070,-690 1079,-699 1070,-708"/>
</g>
<!-- pf_3&#45;&gt;3 -->
<g id="edge19" class="edge"><title>pf_3&#45;&gt;3</title>
<path fill="none" stroke="black" stroke-dasharray="5,2" d="M1070,-689.732C1070,-673.843 1070,-638.448 1070,-613.905"/>
</g>
<!-- pf_4 -->
<g id="node58" class="node"><title>pf_4</title>
<polygon fill="black" stroke="black" points="895,-708 886,-699 895,-690 904,-699 895,-708"/>
</g>
<!-- pf_4&#45;&gt;4 -->
<g id="edge20" class="edge"><title>pf_4&#45;&gt;4</title>
<path fill="none" stroke="black" d="M895,-689.732C895,-673.843 895,-638.448 895,-613.905"/>
</g>
<!-- pf_5 -->
<g id="node59" class="node"><title>pf_5</title>
<polygon fill="black" stroke="black" points="635,-708 626,-699 635,-690 644,-699 635,-708"/>
</g>
<!-- pf_5&#45;&gt;5 -->
<g id="edge21" class="edge"><title>pf_5&#45;&gt;5</title>
<path fill="none" stroke="black" d="M635,-689.732C635,-673.843 635,-638.448 635,-613.905"/>
</g>
</g>
</svg>
