<?xml version="1.0" encoding="UTF-8" standalone="no"?>
<!DOCTYPE svg PUBLIC "-//W3C//DTD SVG 1.1//EN"
 "http://www.w3.org/Graphics/SVG/1.1/DTD/svg11.dtd">
<!-- Generated by graphviz version 2.38.0 (20140413.2041)
 -->
<!-- Title: xxx Pages: 1 -->
<svg width="1461pt" height="628pt"
 viewBox="0.00 0.00 1461.00 628.00" xmlns="http://www.w3.org/2000/svg" xmlns:xlink="http://www.w3.org/1999/xlink">
<g id="graph0" class="graph" transform="scale(1 1) rotate(0) translate(4 624)">
<title>xxx</title>
<polygon fill="white" stroke="none" points="-4,4 -4,-624 1457,-624 1457,4 -4,4"/>
<text text-anchor="middle" x="726.5" y="-6.8" font-family="Times,serif" font-size="14.00"> &#160;</text>
<!-- a -->
<g id="node1" class="node"><title>a</title>
<ellipse fill="gray" stroke="black" cx="165" cy="-53" rx="31" ry="31"/>
</g>
<!-- b -->
<g id="node2" class="node"><title>b</title>
<ellipse fill="gray" stroke="black" cx="31" cy="-53" rx="31" ry="31"/>
</g>
<!-- c -->
<g id="node3" class="node"><title>c</title>
<ellipse fill="none" stroke="black" cx="314" cy="-53" rx="31" ry="31"/>
</g>
<!-- d -->
<g id="node4" class="node"><title>d</title>
<ellipse fill="none" stroke="black" cx="456" cy="-53" rx="31" ry="31"/>
</g>
<!-- e -->
<g id="node5" class="node"><title>e</title>
<ellipse fill="none" stroke="black" cx="594" cy="-53" rx="31" ry="31"/>
</g>
<!-- f -->
<g id="node6" class="node"><title>f</title>
<ellipse fill="gray" stroke="black" cx="1000" cy="-53" rx="31" ry="31"/>
</g>
<!-- g -->
<g id="node7" class="node"><title>g</title>
<ellipse fill="none" stroke="black" cx="1165" cy="-53" rx="31" ry="31"/>
</g>
<!-- h -->
<g id="node8" class="node"><title>h</title>
<ellipse fill="none" stroke="black" cx="1327" cy="-275" rx="31" ry="31"/>
</g>
<!-- A -->
<g id="node9" class="node"><title>A</title>
<polygon fill="none" stroke="black" points="126.5,-301.5 73.5,-301.5 73.5,-248.5 126.5,-248.5 126.5,-301.5"/>
</g>
<!-- AxZ -->
<g id="node27" class="node"><title>AxZ</title>
<ellipse fill="black" stroke="black" cx="161" cy="-164" rx="8" ry="8"/>
</g>
<!-- A&#45;&gt;AxZ -->
<g id="edge27" class="edge"><title>A&#45;&gt;AxZ</title>
<path fill="none" stroke="black" d="M114.302,-248.444C128.388,-223.275 148.967,-186.502 157.296,-171.619"/>
</g>
<!-- AxY -->
<g id="node28" class="node"><title>AxY</title>
<ellipse fill="black" stroke="black" cx="314" cy="-164" rx="8" ry="8"/>
</g>
<!-- A&#45;&gt;AxY -->
<g id="edge28" class="edge"><title>A&#45;&gt;AxY</title>
<path fill="none" stroke="black" d="M126.671,-260.415C176.194,-235.191 279.82,-182.409 307.23,-168.448"/>
</g>
<!-- B -->
<g id="node10" class="node"><title>B</title>
<polygon fill="none" stroke="black" points="520.5,-301.5 467.5,-301.5 467.5,-248.5 520.5,-248.5 520.5,-301.5"/>
</g>
<!-- BxZ -->
<g id="node29" class="node"><title>BxZ</title>
<ellipse fill="black" stroke="black" cx="456" cy="-164" rx="8" ry="8"/>
</g>
<!-- B&#45;&gt;BxZ -->
<g id="edge29" class="edge"><title>B&#45;&gt;BxZ</title>
<path fill="none" stroke="black" d="M485.091,-248.444C476.404,-223.526 463.752,-187.237 458.465,-172.072"/>
</g>
<!-- BxX -->
<g id="node30" class="node"><title>BxX</title>
<ellipse fill="black" stroke="black" cx="594" cy="-164" rx="8" ry="8"/>
</g>
<!-- B&#45;&gt;BxX -->
<g id="edge30" class="edge"><title>B&#45;&gt;BxX</title>
<path fill="none" stroke="black" d="M517.446,-248.444C541.23,-222.52 576.307,-184.285 589.102,-170.339"/>
</g>
<!-- C -->
<g id="node11" class="node"><title>C</title>
<polygon fill="gray" stroke="black" points="963.5,-301.5 910.5,-301.5 910.5,-248.5 963.5,-248.5 963.5,-301.5"/>
</g>
<!-- CxU -->
<g id="node31" class="node"><title>CxU</title>
<ellipse fill="black" stroke="black" cx="1000" cy="-164" rx="8" ry="8"/>
</g>
<!-- C&#45;&gt;CxU -->
<g id="edge31" class="edge"><title>C&#45;&gt;CxU</title>
<path fill="none" stroke="black" d="M951.771,-248.444C966.464,-223.023 987.998,-185.766 996.429,-171.179"/>
</g>
<!-- U -->
<g id="node12" class="node"><title>U</title>
<ellipse fill="gray" stroke="black" cx="1067" cy="-275" rx="31" ry="31"/>
</g>
<!-- U&#45;&gt;CxU -->
<g id="edge43" class="edge"><title>U&#45;&gt;CxU</title>
<path fill="none" stroke="black" d="M1051.12,-248.169C1035.49,-222.735 1012.7,-185.656 1003.78,-171.146"/>
</g>
<!-- DxU -->
<g id="node32" class="node"><title>DxU</title>
<ellipse fill="black" stroke="black" cx="1165" cy="-164" rx="8" ry="8"/>
</g>
<!-- U&#45;&gt;DxU -->
<g id="edge44" class="edge"><title>U&#45;&gt;DxU</title>
<path fill="none" stroke="black" d="M1087.31,-251.415C1110.4,-225.724 1146.64,-185.424 1159.91,-170.662"/>
</g>
<!-- X -->
<g id="node13" class="node"><title>X</title>
<ellipse fill="none" stroke="black" cx="624" cy="-275" rx="31" ry="31"/>
</g>
<!-- X&#45;&gt;BxX -->
<g id="edge42" class="edge"><title>X&#45;&gt;BxX</title>
<path fill="none" stroke="black" d="M615.961,-244.79C609.157,-220.07 599.898,-186.431 595.932,-172.021"/>
</g>
<!-- D -->
<g id="node14" class="node"><title>D</title>
<polygon fill="gray" stroke="black" points="1223.5,-301.5 1170.5,-301.5 1170.5,-248.5 1223.5,-248.5 1223.5,-301.5"/>
</g>
<!-- D&#45;&gt;DxU -->
<g id="edge32" class="edge"><title>D&#45;&gt;DxU</title>
<path fill="none" stroke="black" d="M1189.5,-248.444C1182.18,-223.526 1171.53,-187.237 1167.08,-172.072"/>
</g>
<!-- E -->
<g id="node15" class="node"><title>E</title>
<polygon fill="none" stroke="black" points="1318.5,-525.5 1265.5,-525.5 1265.5,-472.5 1318.5,-472.5 1318.5,-525.5"/>
</g>
<!-- ExV -->
<g id="node33" class="node"><title>ExV</title>
<ellipse fill="black" stroke="black" cx="1327" cy="-387" rx="8" ry="8"/>
</g>
<!-- E&#45;&gt;ExV -->
<g id="edge33" class="edge"><title>E&#45;&gt;ExV</title>
<path fill="none" stroke="black" d="M1300.12,-472.487C1308.2,-447.1 1320.06,-409.814 1324.86,-394.715"/>
</g>
<!-- 1 -->
<g id="node16" class="node"><title>1</title>
<polygon fill="none" stroke="black" points="146.5,-525.5 93.5,-525.5 93.5,-472.5 146.5,-472.5 146.5,-525.5"/>
</g>
<!-- 1x10 -->
<g id="node34" class="node"><title>1x10</title>
<ellipse fill="black" stroke="black" cx="120" cy="-387" rx="8" ry="8"/>
</g>
<!-- 1&#45;&gt;1x10 -->
<g id="edge34" class="edge"><title>1&#45;&gt;1x10</title>
<path fill="none" stroke="black" d="M120,-472.487C120,-447.354 120,-410.558 120,-395.175"/>
</g>
<!-- 2 -->
<g id="node17" class="node"><title>2</title>
<polygon fill="none" stroke="black" points="490.5,-525.5 437.5,-525.5 437.5,-472.5 490.5,-472.5 490.5,-525.5"/>
</g>
<!-- 2x10 -->
<g id="node35" class="node"><title>2x10</title>
<ellipse fill="black" stroke="black" cx="464" cy="-387" rx="8" ry="8"/>
</g>
<!-- 2&#45;&gt;2x10 -->
<g id="edge35" class="edge"><title>2&#45;&gt;2x10</title>
<path fill="none" stroke="black" d="M464,-472.487C464,-447.354 464,-410.558 464,-395.175"/>
</g>
<!-- 3 -->
<g id="node18" class="node"><title>3</title>
<polygon fill="none" stroke="black" points="898.5,-525.5 845.5,-525.5 845.5,-472.5 898.5,-472.5 898.5,-525.5"/>
</g>
<!-- 3x11 -->
<g id="node36" class="node"><title>3x11</title>
<ellipse fill="black" stroke="black" cx="937" cy="-387" rx="8" ry="8"/>
</g>
<!-- 3&#45;&gt;3x11 -->
<g id="edge36" class="edge"><title>3&#45;&gt;3x11</title>
<path fill="none" stroke="black" d="M887.076,-472.487C902.227,-446.847 924.552,-409.067 933.296,-394.269"/>
</g>
<!-- 4 -->
<g id="node19" class="node"><title>4</title>
<polygon fill="none" stroke="black" points="1158.5,-525.5 1105.5,-525.5 1105.5,-472.5 1158.5,-472.5 1158.5,-525.5"/>
</g>
<!-- 4x12 -->
<g id="node37" class="node"><title>4x12</title>
<ellipse fill="black" stroke="black" cx="1067" cy="-387" rx="8" ry="8"/>
</g>
<!-- 4&#45;&gt;4x12 -->
<g id="edge37" class="edge"><title>4&#45;&gt;4x12</title>
<path fill="none" stroke="black" d="M1116.92,-472.487C1101.77,-446.847 1079.45,-409.067 1070.7,-394.269"/>
</g>
<!-- 5 -->
<g id="node20" class="node"><title>5</title>
<polygon fill="none" stroke="black" points="638.5,-525.5 585.5,-525.5 585.5,-472.5 638.5,-472.5 638.5,-525.5"/>
</g>
<!-- 5x12 -->
<g id="node38" class="node"><title>5x12</title>
<ellipse fill="black" stroke="black" cx="624" cy="-387" rx="8" ry="8"/>
</g>
<!-- 5&#45;&gt;5x12 -->
<g id="edge38" class="edge"><title>5&#45;&gt;5x12</title>
<path fill="none" stroke="black" d="M614.783,-472.487C617.525,-447.354 621.539,-410.558 623.217,-395.175"/>
</g>
<!-- Z -->
<g id="node21" class="node"><title>Z</title>
<ellipse fill="gray" stroke="black" cx="230" cy="-275" rx="31" ry="31"/>
</g>
<!-- Z&#45;&gt;AxZ -->
<g id="edge39" class="edge"><title>Z&#45;&gt;AxZ</title>
<path fill="none" stroke="black" d="M213.823,-248.444C197.73,-223.023 174.145,-185.766 164.911,-171.179"/>
</g>
<!-- Z&#45;&gt;BxZ -->
<g id="edge41" class="edge"><title>Z&#45;&gt;BxZ</title>
<path fill="none" stroke="black" d="M257.712,-260.634C310.046,-235.394 420.728,-182.011 449.206,-168.277"/>
</g>
<!-- Y -->
<g id="node22" class="node"><title>Y</title>
<ellipse fill="none" stroke="black" cx="364" cy="-275" rx="31" ry="31"/>
</g>
<!-- Y&#45;&gt;AxY -->
<g id="edge40" class="edge"><title>Y&#45;&gt;AxY</title>
<path fill="none" stroke="black" d="M351.383,-246.495C339.927,-221.52 323.829,-186.428 317.123,-171.808"/>
</g>
<!-- V -->
<g id="node23" class="node"><title>V</title>
<ellipse fill="none" stroke="black" cx="1422" cy="-499" rx="31" ry="31"/>
</g>
<!-- V&#45;&gt;ExV -->
<g id="edge45" class="edge"><title>V&#45;&gt;ExV</title>
<path fill="none" stroke="black" d="M1402.08,-474.94C1379.67,-448.985 1344.71,-408.506 1331.91,-393.684"/>
</g>
<!-- 10 -->
<g id="node24" class="node"><title>10</title>
<ellipse fill="gray" stroke="black" cx="288" cy="-499" rx="31" ry="31"/>
</g>
<!-- 10&#45;&gt;1x10 -->
<g id="edge46" class="edge"><title>10&#45;&gt;1x10</title>
<path fill="none" stroke="black" d="M262.484,-481.293C222.83,-455.329 148.656,-406.763 126.444,-392.22"/>
</g>
<!-- 10&#45;&gt;2x10 -->
<g id="edge47" class="edge"><title>10&#45;&gt;2x10</title>
<path fill="none" stroke="black" d="M313.969,-481.769C355.468,-455.832 434.414,-406.491 457.504,-392.06"/>
</g>
<!-- 11 -->
<g id="node25" class="node"><title>11</title>
<ellipse fill="none" stroke="black" cx="1002" cy="-499" rx="31" ry="31"/>
</g>
<!-- 11&#45;&gt;3x11 -->
<g id="edge48" class="edge"><title>11&#45;&gt;3x11</title>
<path fill="none" stroke="black" d="M986.596,-471.932C971.429,-446.265 949.318,-408.846 940.665,-394.202"/>
</g>
<!-- 12 -->
<g id="node26" class="node"><title>12</title>
<ellipse fill="none" stroke="black" cx="742" cy="-499" rx="31" ry="31"/>
</g>
<!-- 12&#45;&gt;4x12 -->
<g id="edge49" class="edge"><title>12&#45;&gt;4x12</title>
<path fill="none" stroke="black" d="M769.721,-484.686C781.669,-479.185 795.884,-472.95 809,-468 905.965,-431.41 1027.79,-398.374 1059.29,-390.025"/>
</g>
<!-- 12&#45;&gt;5x12 -->
<g id="edge50" class="edge"><title>12&#45;&gt;5x12</title>
<path fill="none" stroke="black" d="M719.805,-477.31C691.765,-451.171 645.26,-407.819 629.452,-393.083"/>
</g>
<!-- AxZ&#45;&gt;a -->
<g id="edge14" class="edge"><title>AxZ&#45;&gt;a</title>
<path fill="none" stroke="black" d="M161.262,-155.848C161.787,-141.545 162.993,-108.68 163.894,-84.1275"/>
</g>
<!-- AxZ&#45;&gt;b -->
<g id="edge15" class="edge"><title>AxZ&#45;&gt;b</title>
<path fill="none" stroke="black" d="M155.076,-158.033C137.542,-143.332 85.2069,-99.4504 54.3927,-73.6139"/>
</g>
<!-- AxY&#45;&gt;c -->
<g id="edge16" class="edge"><title>AxY&#45;&gt;c</title>
<path fill="none" stroke="black" d="M314,-155.848C314,-141.545 314,-108.68 314,-84.1275"/>
</g>
<!-- BxZ&#45;&gt;d -->
<g id="edge17" class="edge"><title>BxZ&#45;&gt;d</title>
<path fill="none" stroke="black" d="M456,-155.848C456,-141.545 456,-108.68 456,-84.1275"/>
</g>
<!-- BxX&#45;&gt;e -->
<g id="edge18" class="edge"><title>BxX&#45;&gt;e</title>
<path fill="none" stroke="black" d="M594,-155.848C594,-141.545 594,-108.68 594,-84.1275"/>
</g>
<!-- CxU&#45;&gt;f -->
<g id="edge19" class="edge"><title>CxU&#45;&gt;f</title>
<path fill="none" stroke="black" d="M1000,-155.848C1000,-141.545 1000,-108.68 1000,-84.1275"/>
</g>
<!-- DxU&#45;&gt;g -->
<g id="edge20" class="edge"><title>DxU&#45;&gt;g</title>
<path fill="none" stroke="black" d="M1165,-155.848C1165,-141.545 1165,-108.68 1165,-84.1275"/>
</g>
<!-- ExV&#45;&gt;h -->
<g id="edge21" class="edge"><title>ExV&#45;&gt;h</title>
<path fill="none" stroke="black" d="M1327,-378.783C1327,-364.348 1327,-331.182 1327,-306.404"/>
</g>
<!-- 1x10&#45;&gt;A -->
<g id="edge22" class="edge"><title>1x10&#45;&gt;A</title>
<path fill="none" stroke="black" d="M118.688,-378.783C115.889,-363.392 109.219,-326.707 104.654,-301.599"/>
</g>
<!-- 2x10&#45;&gt;B -->
<g id="edge23" class="edge"><title>2x10&#45;&gt;B</title>
<path fill="none" stroke="black" d="M465.877,-379.119C470.007,-363.974 480.066,-327.093 486.962,-301.805"/>
</g>
<!-- 3x11&#45;&gt;C -->
<g id="edge24" class="edge"><title>3x11&#45;&gt;C</title>
<path fill="none" stroke="black" d="M937,-378.783C937,-363.392 937,-326.707 937,-301.599"/>
</g>
<!-- 4x12&#45;&gt;U -->
<g id="edge25" class="edge"><title>4x12&#45;&gt;U</title>
<path fill="none" stroke="black" d="M1067,-378.783C1067,-364.348 1067,-331.182 1067,-306.404"/>
</g>
<!-- 5x12&#45;&gt;X -->
<g id="edge26" class="edge"><title>5x12&#45;&gt;X</title>
<path fill="none" stroke="black" d="M624,-378.783C624,-364.348 624,-331.182 624,-306.404"/>
</g>
<!-- pf_Z -->
<!-- pf_Z&#45;&gt;Z -->
<!-- pf_Y -->
<!-- pf_Y&#45;&gt;Y -->
<!-- pf_V -->
<!-- pf_V&#45;&gt;V -->
<!-- pf_10 -->
<!-- pf_10&#45;&gt;10 -->
<!-- pf_11 -->
<!-- pf_11&#45;&gt;11 -->
<!-- pf_12 -->
<!-- pf_12&#45;&gt;12 -->
<!-- pf_D -->
<!-- pf_D&#45;&gt;D -->
<!-- pf_E -->
<!-- pf_E&#45;&gt;E -->
<!-- pf_1 -->
<!-- pf_1&#45;&gt;1 -->
<!-- pf_2 -->
<!-- pf_2&#45;&gt;2 -->
<!-- pf_3 -->
<!-- pf_3&#45;&gt;3 -->
<!-- pf_4 -->
<!-- pf_4&#45;&gt;4 -->
<!-- pf_5 -->
<!-- pf_5&#45;&gt;5 -->
</g>
</svg>
